<svg width="1440" height="917" viewBox="0 0 1440 917" fill="none" xmlns="http://www.w3.org/2000/svg">
<rect y="0.128906" width="1440" height="916" fill="#323232"/>
<mask id="mask0" mask-type="alpha" maskUnits="userSpaceOnUse" x="0" y="0" width="1440" height="917">
<rect y="0.128906" width="1440" height="916" fill="#323232"/>
</mask>
<g mask="url(#mask0)">
<path d="M1695 418.717C1677.81 417.635 1657.62 575.722 1565.32 596.715M-256 367.249C-156.205 361.965 -159.523 430.129 54 430.129C321.495 430.129 164.379 723.153 321.337 753.392C452.463 778.655 554.713 634.721 667.644 583.219C748.117 546.52 842.327 578.029 918.582 654.693C1203.96 941.6 1226.88 783.153 1261.87 714.676C1300.41 639.254 1321.54 543.535 1355.98 521.74C1389.16 500.747 1410.47 494.105 1457.94 580.221" stroke="#E9B200" stroke-width="2" stroke-linecap="round" stroke-linejoin="round" stroke-dasharray="20 20"/>
<g opacity="0.5">
<path d="M915.45 167.564C915.259 167.35 915.242 167.037 915.409 166.818L915.877 166.204C916.239 165.728 916.277 165.071 915.974 164.53L915.512 163.706C915.375 163.461 915.421 163.16 915.624 162.98C915.819 162.807 916.111 162.791 916.337 162.94L917.229 163.53C917.712 163.85 918.324 163.876 918.809 163.598L919.45 163.231C919.69 163.093 920.001 163.149 920.192 163.363C920.368 163.561 920.399 163.847 920.268 164.066L919.837 164.786C919.544 165.275 919.52 165.889 919.772 166.421L920.138 167.192C920.254 167.438 920.199 167.724 920.003 167.898C919.799 168.079 919.493 168.093 919.26 167.931L918.601 167.476C918.12 167.143 917.509 167.084 916.995 167.321L916.14 167.717C915.907 167.824 915.626 167.762 915.45 167.564Z" fill="#DADADA"/>
<path d="M641.388 38.6717C640.951 38.6387 640.588 38.3004 640.52 37.8641L640.346 36.7259C640.205 35.8118 639.541 35.0497 638.654 34.7851L637.188 34.3477C636.79 34.2288 636.518 33.8503 636.535 33.4379C636.552 33.0395 636.834 32.7112 637.222 32.6381L638.877 32.3268C639.715 32.1693 640.376 31.5471 640.585 30.7193L640.85 29.6692C640.957 29.2449 641.349 28.9646 641.788 28.9978C642.193 29.0283 642.539 29.3179 642.646 29.7133L642.972 30.9327C643.202 31.7896 643.838 32.4897 644.669 32.7999L645.959 33.2816C646.337 33.4228 646.586 33.7944 646.569 34.1941C646.552 34.6094 646.254 34.9494 645.847 35.0169L644.614 35.2216C643.745 35.366 643.032 35.965 642.742 36.7958L642.292 38.0845C642.16 38.4636 641.793 38.7022 641.388 38.6717Z" fill="#DADADA"/>
<path d="M1159.79 231.395C1159.77 230.922 1160.08 230.511 1160.54 230.415L1161.75 230.161C1162.71 229.958 1163.44 229.196 1163.61 228.22L1163.88 226.629C1163.96 226.189 1164.33 225.873 1164.78 225.868C1165.21 225.864 1165.6 226.15 1165.73 226.568L1166.28 228.323C1166.56 229.221 1167.32 229.901 1168.24 230.079L1169.41 230.307C1169.87 230.398 1170.23 230.804 1170.25 231.279C1170.27 231.716 1170.01 232.106 1169.6 232.242L1168.32 232.665C1167.43 232.961 1166.77 233.688 1166.54 234.605L1166.2 236.012C1166.09 236.43 1165.73 236.721 1165.3 236.726C1164.85 236.731 1164.44 236.426 1164.31 235.989L1163.93 234.678C1163.66 233.748 1162.92 233.014 1162 232.75L1160.54 232.335C1160.12 232.214 1159.81 231.832 1159.79 231.395Z" fill="#DADADA"/>
<path d="M1103.51 35.5685C1103.43 35.7152 1103.47 35.8992 1103.6 36.0063L1103.98 36.3116C1104.28 36.5463 1104.41 36.9262 1104.31 37.2795L1104.18 37.8078C1104.14 37.9682 1104.21 38.1391 1104.36 38.2201C1104.51 38.2981 1104.68 38.2728 1104.79 38.1581L1105.22 37.7134C1105.45 37.4686 1105.81 37.3805 1106.14 37.4855L1106.59 37.6252C1106.75 37.6767 1106.92 37.6076 1107 37.4602C1107.07 37.324 1107.04 37.1544 1106.93 37.0427L1106.56 36.6701C1106.3 36.4205 1106.19 36.0664 1106.25 35.7257L1106.34 35.2363C1106.37 35.0783 1106.29 34.9171 1106.14 34.8388C1105.99 34.7572 1105.81 34.7858 1105.7 34.9082L1105.39 35.2491C1105.16 35.5001 1104.8 35.6067 1104.46 35.529L1103.89 35.3977C1103.73 35.3626 1103.58 35.4323 1103.51 35.5685Z" fill="#DADADA"/>
<path d="M796.038 104.55C795.668 104.522 795.36 104.236 795.304 103.867L795.156 102.904C795.037 102.13 794.475 101.486 793.725 101.262L792.484 100.892C792.147 100.791 791.917 100.471 791.931 100.122C791.945 99.7849 792.184 99.5071 792.513 99.4453L793.913 99.1819C794.622 99.0487 795.181 98.5222 795.358 97.8219L795.582 96.9336C795.673 96.5746 796.005 96.3373 796.376 96.3654C796.719 96.3912 797.012 96.6363 797.102 96.9709L797.378 98.0024C797.573 98.7274 798.111 99.3198 798.814 99.5822L799.906 99.9898C800.226 100.109 800.436 100.424 800.422 100.762C800.408 101.113 800.155 101.401 799.811 101.458L798.767 101.631C798.032 101.753 797.429 102.26 797.184 102.963L796.803 104.053C796.691 104.374 796.38 104.576 796.038 104.55Z" fill="#DADADA"/>
<path d="M365.096 707.677C364.554 707.491 364.21 706.952 364.275 706.391L364.453 704.875C364.592 703.679 364.005 702.495 362.957 701.859L361.292 700.848C360.819 700.561 360.6 699.991 360.766 699.476C360.925 698.979 361.403 698.659 361.931 698.696L364.096 698.847C365.229 698.926 366.293 698.363 366.845 697.391L367.559 696.134C367.837 695.644 368.428 695.427 368.972 695.613C369.474 695.785 369.814 696.26 369.811 696.784L369.801 698.45C369.794 699.602 370.364 700.698 371.321 701.372L372.757 702.382C373.195 702.691 373.386 703.244 373.226 703.743C373.059 704.262 372.556 704.591 372.006 704.54L370.395 704.394C369.238 704.288 368.129 704.8 367.481 705.739L366.439 707.248C366.144 707.674 365.598 707.849 365.096 707.677Z" fill="#DADADA"/>
</g>
<g opacity="0.5">
<path d="M452.286 194.851C452.095 194.638 452.078 194.324 452.245 194.105L452.713 193.491C453.075 193.015 453.113 192.358 452.81 191.817L452.348 190.993C452.211 190.748 452.257 190.447 452.459 190.267C452.655 190.094 452.947 190.078 453.173 190.227L454.065 190.817C454.548 191.137 455.16 191.163 455.645 190.885L456.286 190.518C456.526 190.38 456.837 190.436 457.028 190.65C457.204 190.848 457.235 191.134 457.103 191.353L456.673 192.073C456.38 192.563 456.356 193.176 456.608 193.709L456.974 194.479C457.09 194.725 457.035 195.011 456.839 195.185C456.635 195.366 456.329 195.38 456.096 195.219L455.437 194.763C454.956 194.43 454.344 194.371 453.831 194.609L452.976 195.004C452.743 195.112 452.462 195.049 452.286 194.851Z" fill="#DADADA"/>
<path d="M122.767 122.412C122.33 122.379 121.966 122.041 121.899 121.604L121.724 120.466C121.584 119.552 120.92 118.79 120.033 118.525L118.567 118.088C118.169 117.969 117.897 117.591 117.914 117.178C117.931 116.78 118.213 116.451 118.601 116.378L120.256 116.067C121.094 115.91 121.755 115.287 121.964 114.46L122.229 113.409C122.336 112.985 122.728 112.705 123.167 112.738C123.572 112.769 123.918 113.058 124.024 113.454L124.351 114.673C124.581 115.53 125.217 116.23 126.048 116.54L127.338 117.022C127.716 117.163 127.965 117.535 127.948 117.934C127.931 118.35 127.633 118.69 127.226 118.757L125.993 118.962C125.123 119.106 124.411 119.705 124.121 120.536L123.671 121.825C123.539 122.204 123.171 122.442 122.767 122.412Z" fill="#DADADA"/>
<path d="M591.167 306.635C591.145 306.162 591.458 305.752 591.915 305.655L593.122 305.401C594.086 305.198 594.817 304.436 594.985 303.46L595.258 301.869C595.333 301.43 595.704 301.114 596.15 301.109C596.581 301.104 596.972 301.391 597.103 301.808L597.654 303.563C597.936 304.461 598.693 305.141 599.61 305.32L600.782 305.547C601.249 305.638 601.6 306.044 601.623 306.519C601.644 306.957 601.38 307.347 600.972 307.483L599.698 307.906C598.808 308.201 598.14 308.929 597.916 309.846L597.572 311.253C597.47 311.671 597.103 311.961 596.671 311.966C596.222 311.971 595.816 311.667 595.689 311.229L595.307 309.918C595.035 308.989 594.299 308.255 593.371 307.99L591.915 307.575C591.492 307.455 591.188 307.072 591.167 306.635Z" fill="#DADADA"/>
<path d="M805.975 276.635C806.224 276.24 806.713 276.086 807.143 276.267L808.306 276.755C809.223 277.141 810.267 276.938 810.965 276.239L812.075 275.128C812.39 274.812 812.881 274.766 813.256 275.017C813.618 275.259 813.78 275.716 813.652 276.133L813.126 277.843C812.851 278.737 813.096 279.722 813.759 280.389L814.616 281.25C814.95 281.585 815.011 282.111 814.762 282.507C814.532 282.872 814.094 283.038 813.681 282.916L812.369 282.528C811.461 282.259 810.49 282.469 809.779 283.086L808.712 284.012C808.387 284.295 807.915 284.322 807.552 284.079C807.174 283.827 807.009 283.347 807.151 282.915L807.57 281.651C807.87 280.743 807.675 279.733 807.056 278.997L806.062 277.814C805.781 277.48 805.746 277 805.975 276.635Z" fill="#DADADA"/>
<path d="M584.888 119.309C584.811 119.455 584.852 119.639 584.985 119.747L585.365 120.052C585.657 120.286 585.787 120.666 585.696 121.02L585.559 121.548C585.518 121.708 585.595 121.879 585.744 121.96C585.888 122.038 586.064 122.013 586.174 121.898L586.6 121.454C586.835 121.209 587.193 121.121 587.525 121.226L587.967 121.365C588.13 121.417 588.304 121.348 588.382 121.2C588.453 121.064 588.425 120.895 588.312 120.783L587.936 120.41C587.684 120.161 587.57 119.807 587.632 119.466L587.72 118.977C587.749 118.819 587.67 118.657 587.525 118.579C587.375 118.497 587.191 118.526 587.079 118.648L586.767 118.989C586.537 119.24 586.186 119.347 585.845 119.269L585.269 119.138C585.115 119.103 584.96 119.173 584.888 119.309Z" fill="#DADADA"/>
<path d="M277.419 188.29C277.049 188.262 276.741 187.976 276.684 187.607L276.536 186.644C276.418 185.871 275.856 185.226 275.105 185.002L273.865 184.632C273.528 184.531 273.298 184.211 273.312 183.862C273.326 183.525 273.565 183.247 273.893 183.186L275.294 182.922C276.003 182.789 276.562 182.262 276.739 181.562L276.963 180.674C277.054 180.315 277.385 180.078 277.757 180.106C278.099 180.131 278.393 180.376 278.483 180.711L278.759 181.743C278.954 182.468 279.492 183.06 280.195 183.322L281.287 183.73C281.606 183.85 281.817 184.164 281.803 184.502C281.788 184.853 281.536 185.141 281.192 185.198L280.148 185.371C279.413 185.493 278.81 186 278.564 186.703L278.184 187.793C278.072 188.114 277.761 188.316 277.419 188.29Z" fill="#DADADA"/>
<path d="M255.1 334.678C254.558 334.492 254.214 333.953 254.279 333.392L254.456 331.876C254.596 330.68 254.009 329.495 252.961 328.859L251.296 327.849C250.823 327.562 250.604 326.992 250.77 326.477C250.929 325.98 251.407 325.66 251.935 325.697L254.1 325.848C255.233 325.927 256.297 325.364 256.849 324.392L257.563 323.134C257.841 322.645 258.432 322.427 258.976 322.614C259.478 322.786 259.818 323.26 259.815 323.785L259.805 325.45C259.798 326.603 260.368 327.699 261.325 328.373L262.761 329.383C263.199 329.692 263.39 330.245 263.23 330.744C263.063 331.262 262.56 331.591 262.01 331.541L260.398 331.394C259.242 331.289 258.133 331.801 257.485 332.739L256.443 334.248C256.148 334.675 255.602 334.85 255.1 334.678Z" fill="#DADADA"/>
</g>
<g opacity="0.5">
<path d="M875.905 558.111C875.715 557.898 875.698 557.584 875.864 557.365L876.332 556.751C876.694 556.275 876.732 555.618 876.429 555.077L875.967 554.253C875.83 554.008 875.876 553.707 876.079 553.527C876.274 553.354 876.566 553.338 876.792 553.487L877.684 554.077C878.168 554.397 878.779 554.423 879.264 554.145L879.905 553.778C880.145 553.64 880.456 553.696 880.647 553.91C880.823 554.108 880.854 554.394 880.723 554.613L880.292 555.333C879.999 555.823 879.975 556.436 880.227 556.969L880.593 557.739C880.709 557.985 880.654 558.271 880.458 558.445C880.254 558.626 879.948 558.64 879.715 558.479L879.056 558.023C878.575 557.69 877.964 557.631 877.45 557.869L876.595 558.264C876.362 558.372 876.081 558.309 875.905 558.111Z" fill="#DADADA"/>
<path d="M546.388 485.672C545.951 485.639 545.588 485.3 545.52 484.864L545.346 483.726C545.205 482.812 544.541 482.05 543.654 481.785L542.188 481.348C541.79 481.229 541.518 480.85 541.535 480.438C541.552 480.039 541.834 479.711 542.222 479.638L543.877 479.327C544.715 479.169 545.376 478.547 545.585 477.719L545.85 476.669C545.957 476.245 546.349 475.965 546.788 475.998C547.193 476.028 547.539 476.318 547.646 476.713L547.972 477.933C548.202 478.79 548.838 479.49 549.669 479.8L550.959 480.282C551.337 480.423 551.586 480.794 551.569 481.194C551.552 481.609 551.254 481.949 550.847 482.017L549.614 482.222C548.745 482.366 548.032 482.965 547.742 483.796L547.292 485.085C547.16 485.464 546.793 485.702 546.388 485.672Z" fill="#DADADA"/>
<path d="M1064.79 678.395C1064.77 677.922 1065.08 677.511 1065.54 677.415L1066.75 677.161C1067.71 676.958 1068.44 676.196 1068.61 675.22L1068.88 673.629C1068.96 673.19 1069.33 672.874 1069.78 672.869C1070.21 672.864 1070.6 673.151 1070.73 673.568L1071.28 675.323C1071.56 676.221 1072.32 676.901 1073.24 677.079L1074.41 677.307C1074.87 677.398 1075.23 677.804 1075.25 678.279C1075.27 678.716 1075.01 679.106 1074.6 679.242L1073.32 679.665C1072.43 679.961 1071.77 680.689 1071.54 681.605L1071.2 683.012C1071.09 683.431 1070.73 683.721 1070.3 683.726C1069.85 683.731 1069.44 683.427 1069.31 682.989L1068.93 681.678C1068.66 680.748 1067.92 680.015 1067 679.75L1065.54 679.335C1065.12 679.214 1064.81 678.832 1064.79 678.395Z" fill="#DADADA"/>
<path d="M1008.51 482.568C1008.43 482.715 1008.47 482.899 1008.6 483.006L1008.98 483.312C1009.28 483.546 1009.41 483.926 1009.31 484.279L1009.18 484.808C1009.14 484.968 1009.21 485.139 1009.36 485.22C1009.51 485.298 1009.68 485.273 1009.79 485.158L1010.22 484.713C1010.45 484.469 1010.81 484.38 1011.14 484.485L1011.59 484.625C1011.75 484.677 1011.92 484.608 1012 484.46C1012.07 484.324 1012.04 484.154 1011.93 484.043L1011.56 483.67C1011.3 483.421 1011.19 483.066 1011.25 482.726L1011.34 482.236C1011.37 482.078 1011.29 481.917 1011.14 481.839C1010.99 481.757 1010.81 481.786 1010.7 481.908L1010.39 482.249C1010.16 482.5 1009.8 482.607 1009.46 482.529L1008.89 482.398C1008.73 482.363 1008.58 482.432 1008.51 482.568Z" fill="#DADADA"/>
<path d="M701.038 551.55C700.668 551.522 700.36 551.236 700.304 550.867L700.156 549.904C700.037 549.13 699.475 548.486 698.725 548.262L697.484 547.892C697.147 547.791 696.917 547.471 696.931 547.122C696.945 546.785 697.184 546.507 697.513 546.445L698.913 546.182C699.622 546.049 700.181 545.522 700.358 544.822L700.582 543.934C700.673 543.575 701.005 543.337 701.376 543.365C701.719 543.391 702.012 543.636 702.102 543.971L702.378 545.002C702.573 545.727 703.111 546.32 703.814 546.582L704.906 546.99C705.226 547.109 705.436 547.424 705.422 547.762C705.408 548.113 705.155 548.401 704.811 548.458L703.767 548.631C703.032 548.753 702.429 549.26 702.184 549.963L701.803 551.053C701.691 551.374 701.38 551.576 701.038 551.55Z" fill="#DADADA"/>
</g>
<g opacity="0.5">
<path d="M403.905 624.111C403.715 623.897 403.698 623.584 403.864 623.365L404.332 622.751C404.694 622.275 404.732 621.618 404.429 621.077L403.967 620.253C403.83 620.008 403.876 619.707 404.079 619.527C404.274 619.354 404.566 619.337 404.792 619.487L405.684 620.077C406.168 620.397 406.779 620.423 407.264 620.145L407.905 619.778C408.145 619.64 408.456 619.695 408.647 619.91C408.823 620.108 408.854 620.394 408.723 620.613L408.292 621.333C407.999 621.822 407.975 622.436 408.227 622.968L408.593 623.739C408.709 623.984 408.654 624.271 408.458 624.445C408.254 624.626 407.948 624.64 407.715 624.478L407.056 624.022C406.575 623.689 405.964 623.631 405.45 623.868L404.595 624.264C404.362 624.371 404.081 624.309 403.905 624.111Z" fill="#DADADA"/>
<path d="M536.508 548.569C536.43 548.716 536.471 548.899 536.604 549.007L536.984 549.312C537.276 549.547 537.406 549.926 537.315 550.28L537.178 550.808C537.137 550.969 537.214 551.14 537.363 551.221C537.507 551.299 537.683 551.273 537.793 551.159L538.219 550.714C538.454 550.469 538.812 550.381 539.144 550.486L539.586 550.625C539.749 550.677 539.923 550.608 540 550.46C540.072 550.324 540.044 550.154 539.931 550.043L539.555 549.67C539.303 549.42 539.189 549.066 539.251 548.726L539.34 548.236C539.368 548.078 539.289 547.917 539.145 547.838C538.994 547.757 538.811 547.786 538.698 547.908L538.386 548.249C538.156 548.5 537.805 548.607 537.464 548.529L536.889 548.398C536.735 548.363 536.579 548.433 536.508 548.569Z" fill="#DADADA"/>
<path d="M206.719 763.937C206.177 763.751 205.833 763.212 205.898 762.652L206.076 761.135C206.215 759.939 205.628 758.755 204.58 758.119L202.915 757.108C202.442 756.821 202.223 756.251 202.389 755.736C202.548 755.239 203.026 754.919 203.554 754.956L205.719 755.108C206.852 755.187 207.916 754.623 208.468 753.651L209.182 752.394C209.46 751.904 210.051 751.687 210.595 751.873C211.097 752.045 211.437 752.52 211.434 753.044L211.424 754.71C211.417 755.862 211.987 756.958 212.944 757.632L214.38 758.643C214.819 758.951 215.009 759.504 214.849 760.003C214.682 760.522 214.179 760.851 213.629 760.801L212.018 760.654C210.861 760.548 209.752 761.06 209.104 761.999L208.062 763.508C207.767 763.934 207.221 764.109 206.719 763.937Z" fill="#DADADA"/>
</g>
<g opacity="0.5">
<path d="M1241.9 146.111C1241.71 145.898 1241.7 145.585 1241.86 145.366L1242.33 144.751C1242.69 144.275 1242.73 143.618 1242.43 143.077L1241.97 142.253C1241.83 142.008 1241.88 141.707 1242.08 141.528C1242.27 141.354 1242.57 141.338 1242.79 141.488L1243.68 142.078C1244.17 142.397 1244.78 142.423 1245.26 142.145L1245.9 141.778C1246.15 141.641 1246.46 141.696 1246.65 141.91C1246.82 142.109 1246.85 142.394 1246.72 142.614L1246.29 143.333C1246 143.823 1245.98 144.436 1246.23 144.969L1246.59 145.74C1246.71 145.985 1246.65 146.271 1246.46 146.445C1246.25 146.626 1245.95 146.64 1245.72 146.479L1245.06 146.023C1244.58 145.69 1243.96 145.631 1243.45 145.869L1242.59 146.264C1242.36 146.372 1242.08 146.309 1241.9 146.111Z" fill="#DADADA"/>
<path d="M912.388 73.6717C911.951 73.6387 911.588 73.3004 911.52 72.8641L911.346 71.7259C911.205 70.8118 910.541 70.0497 909.654 69.7851L908.188 69.3477C907.79 69.2288 907.518 68.8503 907.535 68.4379C907.552 68.0395 907.834 67.7112 908.222 67.6381L909.877 67.3268C910.715 67.1693 911.376 66.5471 911.585 65.7193L911.85 64.6692C911.957 64.2449 912.349 63.9646 912.788 63.9978C913.193 64.0283 913.539 64.3179 913.646 64.7133L913.972 65.9327C914.202 66.7896 914.838 67.4897 915.669 67.7999L916.959 68.2816C917.337 68.4228 917.586 68.7944 917.569 69.1941C917.552 69.6094 917.254 69.9494 916.847 70.0169L915.614 70.2216C914.745 70.366 914.032 70.965 913.742 71.7958L913.292 73.0845C913.16 73.4636 912.793 73.7022 912.388 73.6717Z" fill="#DADADA"/>
<path d="M1430.79 266.395C1430.77 265.922 1431.08 265.511 1431.54 265.415L1432.75 265.161C1433.71 264.958 1434.44 264.196 1434.61 263.22L1434.88 261.629C1434.96 261.189 1435.33 260.873 1435.78 260.868C1436.21 260.864 1436.6 261.15 1436.73 261.568L1437.28 263.323C1437.56 264.221 1438.32 264.901 1439.24 265.079L1440.41 265.307C1440.87 265.398 1441.23 265.804 1441.25 266.279C1441.27 266.716 1441.01 267.106 1440.6 267.242L1439.32 267.665C1438.43 267.961 1437.77 268.688 1437.54 269.605L1437.2 271.012C1437.09 271.43 1436.73 271.721 1436.3 271.726C1435.85 271.731 1435.44 271.426 1435.31 270.989L1434.93 269.678C1434.66 268.748 1433.92 268.014 1433 267.75L1431.54 267.335C1431.12 267.214 1430.81 266.832 1430.79 266.395Z" fill="#DADADA"/>
<path d="M1374.51 70.5685C1374.43 70.7152 1374.47 70.8992 1374.6 71.0063L1374.98 71.3116C1375.28 71.5463 1375.41 71.9262 1375.31 72.2795L1375.18 72.8078C1375.14 72.9682 1375.21 73.1391 1375.36 73.2201C1375.51 73.2981 1375.68 73.2728 1375.79 73.1581L1376.22 72.7134C1376.45 72.4686 1376.81 72.3805 1377.14 72.4855L1377.59 72.6252C1377.75 72.6767 1377.92 72.6076 1378 72.4602C1378.07 72.324 1378.04 72.1544 1377.93 72.0427L1377.56 71.6701C1377.3 71.4205 1377.19 71.0664 1377.25 70.7257L1377.34 70.2363C1377.37 70.0783 1377.29 69.9171 1377.14 69.8388C1376.99 69.7572 1376.81 69.7858 1376.7 69.9082L1376.39 70.2491C1376.16 70.5001 1375.8 70.6067 1375.46 70.529L1374.89 70.3977C1374.73 70.3626 1374.58 70.4323 1374.51 70.5685Z" fill="#DADADA"/>
<path d="M1102.42 84.2903C1102.04 84.2623 1101.74 83.9761 1101.68 83.6069L1101.53 82.6441C1101.41 81.8706 1100.85 81.2259 1100.1 81.002L1098.86 80.6319C1098.52 80.5313 1098.29 80.2111 1098.31 79.8621C1098.32 79.5251 1098.56 79.2474 1098.89 79.1856L1100.29 78.9222C1101 78.7889 1101.56 78.2625 1101.74 77.5621L1101.96 76.6738C1102.05 76.3148 1102.38 76.0776 1102.75 76.1056C1103.1 76.1315 1103.39 76.3765 1103.48 76.7112L1103.76 77.7427C1103.95 78.4677 1104.49 79.06 1105.19 79.3224L1106.28 79.73C1106.6 79.8495 1106.81 80.1639 1106.8 80.5021C1106.78 80.8534 1106.53 81.1411 1106.19 81.1982L1105.14 81.3714C1104.41 81.4935 1103.81 82.0004 1103.56 82.7033L1103.18 83.7935C1103.07 84.1142 1102.76 84.3161 1102.42 84.2903Z" fill="#DADADA"/>
<path d="M1044.72 285.938C1044.18 285.752 1043.83 285.213 1043.9 284.653L1044.08 283.136C1044.22 281.94 1043.63 280.756 1042.58 280.12L1040.92 279.109C1040.44 278.822 1040.23 278.252 1040.39 277.737C1040.55 277.24 1041.03 276.92 1041.56 276.957L1043.72 277.109C1044.85 277.188 1045.92 276.624 1046.47 275.652L1047.18 274.395C1047.46 273.905 1048.05 273.688 1048.6 273.874C1049.1 274.046 1049.44 274.521 1049.44 275.045L1049.43 276.711C1049.42 277.863 1049.99 278.959 1050.95 279.633L1052.38 280.644C1052.82 280.952 1053.01 281.505 1052.85 282.004C1052.68 282.523 1052.18 282.852 1051.63 282.802L1050.02 282.655C1048.86 282.549 1047.75 283.061 1047.11 284L1046.06 285.509C1045.77 285.935 1045.22 286.11 1044.72 285.938Z" fill="#DADADA"/>
<path d="M1260.5 529.322C1260.22 528.822 1260.32 528.195 1260.75 527.827L1261.9 526.823C1262.81 526.034 1263.17 524.764 1262.81 523.586L1262.25 521.737C1262.09 521.205 1262.31 520.636 1262.78 520.367C1263.23 520.107 1263.8 520.192 1264.18 520.576L1265.68 522.131C1266.48 522.953 1267.66 523.253 1268.72 522.906L1270.11 522.455C1270.64 522.281 1271.23 522.517 1271.51 523.02C1271.77 523.484 1271.71 524.061 1271.35 524.444L1270.22 525.67C1269.44 526.515 1269.13 527.708 1269.4 528.852L1269.79 530.55C1269.91 531.074 1269.68 531.612 1269.22 531.872C1268.75 532.143 1268.15 532.047 1267.77 531.639L1266.67 530.455C1265.88 529.601 1264.7 529.234 1263.59 529.491L1261.79 529.908C1261.28 530.024 1260.76 529.786 1260.5 529.322Z" fill="#DADADA"/>
</g>
</g>
</svg>
