<svg width="1440" height="372" viewBox="0 0 1440 372" fill="none" xmlns="http://www.w3.org/2000/svg">
<rect width="1440" height="372" fill="#323232"/>
<mask id="mask0" mask-type="alpha" maskUnits="userSpaceOnUse" x="0" y="0" width="1440" height="372">
<rect width="1440" height="372" fill="#323232"/>
</mask>
<g mask="url(#mask0)">
<g opacity="0.5">
<path d="M20.3181 54.0397C19.8808 54.0066 19.5172 53.6684 19.4502 53.232L19.2753 52.0938C19.1348 51.1797 18.4707 50.4177 17.5839 50.153L16.1182 49.7156C15.7198 49.5967 15.4481 49.2182 15.4651 48.8058C15.4815 48.4074 15.7634 48.0791 16.1519 48.006L17.8071 47.6947C18.6447 47.5372 19.3056 46.915 19.5146 46.0872L19.7798 45.0371C19.8869 44.6128 20.2787 44.3324 20.718 44.3656C21.1223 44.3961 21.4692 44.6857 21.5752 45.0812L21.9022 46.3006C22.1319 47.1575 22.768 47.8576 23.5986 48.1678L24.8886 48.6495C25.2668 48.7907 25.5153 49.1624 25.4989 49.562C25.4818 49.9773 25.1833 50.3173 24.7765 50.3848L23.5436 50.5896C22.6742 50.7339 21.9619 51.333 21.6719 52.1637L21.2219 53.4525C21.0896 53.8316 20.7223 54.0702 20.3181 54.0397Z" fill="#DADADA"/>
<path d="M55.3181 295.04C54.8808 295.007 54.5172 294.668 54.4502 294.232L54.2753 293.094C54.1348 292.18 53.4707 291.418 52.5839 291.153L51.1182 290.716C50.7198 290.597 50.4481 290.218 50.4651 289.806C50.4815 289.407 50.7634 289.079 51.1519 289.006L52.8071 288.695C53.6447 288.537 54.3056 287.915 54.5146 287.087L54.7798 286.037C54.8869 285.613 55.2787 285.332 55.718 285.366C56.1223 285.396 56.4692 285.686 56.5752 286.081L56.9022 287.301C57.1319 288.158 57.768 288.858 58.5986 289.168L59.8886 289.65C60.2668 289.791 60.5153 290.162 60.4989 290.562C60.4818 290.977 60.1833 291.317 59.7765 291.385L58.5436 291.59C57.6742 291.734 56.9619 292.333 56.6719 293.164L56.2219 294.453C56.0896 294.832 55.7223 295.07 55.3181 295.04Z" fill="#DADADA"/>
<path d="M987.318 149.04C986.881 149.007 986.517 148.668 986.45 148.232L986.275 147.094C986.135 146.18 985.471 145.418 984.584 145.153L983.118 144.716C982.72 144.597 982.448 144.218 982.465 143.806C982.482 143.407 982.763 143.079 983.152 143.006L984.807 142.695C985.645 142.537 986.306 141.915 986.515 141.087L986.78 140.037C986.887 139.613 987.279 139.332 987.718 139.366C988.122 139.396 988.469 139.686 988.575 140.081L988.902 141.301C989.132 142.158 989.768 142.858 990.599 143.168L991.889 143.65C992.267 143.791 992.515 144.162 992.499 144.562C992.482 144.977 992.183 145.317 991.777 145.385L990.544 145.59C989.674 145.734 988.962 146.333 988.672 147.164L988.222 148.453C988.09 148.832 987.722 149.07 987.318 149.04Z" fill="#DADADA"/>
<path d="M1378.47 254.648C1377.58 254.32 1377.03 253.406 1377.16 252.469L1377.48 249.991C1377.75 248.014 1376.82 246.036 1375.13 244.954L1372.37 243.19C1371.61 242.703 1371.27 241.755 1371.56 240.909C1371.83 240.093 1372.62 239.581 1373.48 239.661L1377.08 239.999C1378.93 240.172 1380.68 239.277 1381.62 237.687L1382.81 235.655C1383.29 234.845 1384.27 234.501 1385.16 234.831C1385.98 235.135 1386.53 235.939 1386.51 236.816L1386.45 239.551C1386.41 241.462 1387.31 243.294 1388.85 244.436L1391.22 246.189C1391.93 246.71 1392.22 247.63 1391.95 248.449C1391.66 249.301 1390.83 249.827 1389.94 249.724L1387.27 249.416C1385.37 249.198 1383.53 250.011 1382.43 251.554L1380.7 253.976C1380.2 254.679 1379.29 254.952 1378.47 254.648Z" fill="#DADADA"/>
<path d="M465.318 223.04C464.881 223.007 464.517 222.669 464.45 222.233L464.275 221.095C464.135 220.181 463.471 219.418 462.584 219.154L461.118 218.716C460.72 218.597 460.448 218.219 460.465 217.807C460.482 217.408 460.763 217.08 461.152 217.007L462.807 216.696C463.645 216.538 464.306 215.916 464.515 215.088L464.78 214.038C464.887 213.614 465.279 213.333 465.718 213.366C466.122 213.397 466.469 213.687 466.575 214.082L466.902 215.301C467.132 216.158 467.768 216.858 468.599 217.169L469.889 217.65C470.267 217.791 470.515 218.163 470.499 218.563C470.482 218.978 470.183 219.318 469.777 219.386L468.544 219.59C467.674 219.735 466.962 220.334 466.672 221.165L466.222 222.453C466.09 222.832 465.722 223.071 465.318 223.04Z" fill="#DADADA"/>
<path d="M935.316 51.0397C934.879 51.0067 934.515 50.6684 934.448 50.2321L934.273 49.0939C934.133 48.1798 933.469 47.4178 932.582 47.1531L931.116 46.7157C930.718 46.5968 930.446 46.2183 930.463 45.8059C930.48 45.4075 930.761 45.0792 931.15 45.0062L932.805 44.6949C933.643 44.5374 934.304 43.9151 934.513 43.0874L934.778 42.0373C934.885 41.613 935.277 41.3326 935.716 41.3658C936.12 41.3963 936.467 41.6859 936.573 42.0814L936.9 43.3007C937.13 44.1576 937.766 44.8578 938.597 45.1679L939.887 45.6496C940.265 45.7908 940.513 46.1625 940.497 46.5621C940.48 46.9774 940.181 47.3174 939.775 47.3849L938.542 47.5897C937.672 47.734 936.96 48.3331 936.67 49.1638L936.22 50.4526C936.088 50.8316 935.72 51.0702 935.316 51.0397Z" fill="#DADADA"/>
<path d="M538.72 246.762C538.697 246.289 539.011 245.878 539.468 245.782L540.675 245.528C541.639 245.325 542.37 244.563 542.537 243.587L542.811 241.996C542.886 241.557 543.257 241.241 543.703 241.236C544.134 241.231 544.524 241.518 544.656 241.935L545.207 243.69C545.489 244.588 546.246 245.268 547.163 245.446L548.335 245.674C548.802 245.765 549.153 246.171 549.176 246.646C549.197 247.084 548.933 247.474 548.524 247.609L547.251 248.033C546.361 248.328 545.693 249.056 545.469 249.973L545.125 251.379C545.023 251.798 544.656 252.088 544.224 252.093C543.775 252.098 543.369 251.794 543.241 251.356L542.859 250.045C542.588 249.115 541.852 248.382 540.924 248.117L539.467 247.702C539.045 247.581 538.741 247.199 538.72 246.762Z" fill="#DADADA"/>
<path d="M482.437 50.9356C482.36 51.0824 482.4 51.2663 482.534 51.3734L482.914 51.6787C483.206 51.9134 483.335 52.2933 483.244 52.6466L483.108 53.1749C483.067 53.3353 483.143 53.5063 483.293 53.5872C483.437 53.6652 483.613 53.6399 483.723 53.5252L484.149 53.0805C484.384 52.8358 484.742 52.7476 485.074 52.8526L485.516 52.9923C485.679 53.0438 485.853 52.9747 485.93 52.8273C486.002 52.6911 485.974 52.5215 485.861 52.4098L485.485 52.0372C485.233 51.7876 485.119 51.4335 485.18 51.0929L485.269 50.6034C485.298 50.4455 485.219 50.2842 485.074 50.2059C484.924 50.1244 484.74 50.153 484.628 50.2753L484.315 50.6162C484.085 50.8672 483.734 50.9738 483.394 50.8962L482.818 50.7648C482.664 50.7298 482.509 50.7994 482.437 50.9356Z" fill="#DADADA"/>
<path d="M927.437 219.936C927.36 220.083 927.4 220.267 927.534 220.374L927.914 220.679C928.206 220.914 928.335 221.294 928.244 221.647L928.108 222.175C928.067 222.336 928.143 222.507 928.293 222.588C928.437 222.666 928.613 222.64 928.723 222.526L929.149 222.081C929.384 221.836 929.742 221.748 930.074 221.853L930.516 221.993C930.679 222.044 930.853 221.975 930.93 221.828C931.002 221.691 930.974 221.522 930.861 221.41L930.485 221.038C930.233 220.788 930.119 220.434 930.18 220.093L930.269 219.604C930.298 219.446 930.219 219.285 930.074 219.206C929.924 219.125 929.74 219.153 929.628 219.276L929.315 219.617C929.085 219.868 928.734 219.974 928.394 219.897L927.818 219.765C927.664 219.73 927.509 219.8 927.437 219.936Z" fill="#DADADA"/>
<path d="M1397.44 47.9358C1397.36 48.0826 1397.4 48.2666 1397.53 48.3738L1397.91 48.6789C1398.2 48.9136 1398.33 49.2935 1398.24 49.6468L1398.11 50.1755C1398.06 50.3358 1398.14 50.5068 1398.29 50.5877C1398.43 50.6658 1398.61 50.6404 1398.72 50.5257L1399.15 50.0807C1399.38 49.8359 1399.74 49.7477 1400.07 49.8527L1400.51 49.9923C1400.68 50.0438 1400.85 49.9747 1400.93 49.8273C1401 49.691 1400.97 49.5213 1400.86 49.4096L1400.48 49.0372C1400.23 48.7876 1400.12 48.4334 1400.18 48.0927L1400.27 47.603C1400.3 47.4451 1400.22 47.2838 1400.07 47.2056C1399.92 47.124 1399.74 47.1526 1399.63 47.275L1399.31 47.6161C1399.08 47.8672 1398.73 47.9738 1398.39 47.8962L1397.82 47.765C1397.66 47.7299 1397.51 47.7996 1397.44 47.9358Z" fill="#DADADA"/>
<path d="M174.966 119.919C174.596 119.891 174.288 119.605 174.231 119.236L174.083 118.273C173.964 117.499 173.403 116.855 172.652 116.631L171.412 116.26C171.075 116.16 170.845 115.84 170.859 115.491C170.873 115.154 171.112 114.876 171.44 114.814L172.841 114.551C173.55 114.417 174.109 113.891 174.286 113.191L174.51 112.302C174.601 111.943 174.932 111.706 175.304 111.734C175.646 111.76 175.94 112.005 176.03 112.34L176.306 113.371C176.501 114.096 177.039 114.689 177.742 114.951L178.833 115.359C179.153 115.478 179.364 115.793 179.35 116.131C179.335 116.482 179.083 116.77 178.739 116.827L177.695 117C176.959 117.122 176.357 117.629 176.111 118.332L175.731 119.422C175.619 119.743 175.308 119.945 174.966 119.919Z" fill="#DADADA"/>
<path d="M619.966 288.919C619.596 288.891 619.288 288.605 619.231 288.236L619.083 287.273C618.964 286.499 618.403 285.855 617.652 285.631L616.412 285.261C616.075 285.16 615.845 284.84 615.859 284.491C615.873 284.154 616.112 283.876 616.44 283.814L617.841 283.551C618.55 283.418 619.109 282.891 619.286 282.191L619.51 281.303C619.601 280.944 619.932 280.706 620.304 280.734C620.646 280.76 620.94 281.005 621.03 281.34L621.306 282.371C621.501 283.096 622.039 283.689 622.742 283.951L623.833 284.359C624.153 284.478 624.364 284.793 624.35 285.131C624.335 285.482 624.083 285.77 623.739 285.827L622.695 286C621.959 286.122 621.357 286.629 621.111 287.332L620.731 288.422C620.619 288.743 620.308 288.945 619.966 288.919Z" fill="#DADADA"/>
<path d="M1089.97 116.918C1089.6 116.89 1089.29 116.604 1089.23 116.235L1089.08 115.272C1088.96 114.498 1088.4 113.854 1087.65 113.63L1086.41 113.26C1086.07 113.159 1085.84 112.839 1085.86 112.49C1085.87 112.153 1086.11 111.875 1086.44 111.813L1087.84 111.55C1088.55 111.417 1089.11 110.89 1089.29 110.19L1089.51 109.302C1089.6 108.943 1089.93 108.705 1090.3 108.733C1090.65 108.759 1090.94 109.004 1091.03 109.339L1091.31 110.37C1091.5 111.095 1092.04 111.688 1092.74 111.95L1093.83 112.358C1094.15 112.477 1094.36 112.792 1094.35 113.13C1094.34 113.481 1094.08 113.769 1093.74 113.826L1092.7 113.999C1091.96 114.121 1091.36 114.628 1091.11 115.331L1090.73 116.421C1090.62 116.742 1090.31 116.944 1089.97 116.918Z" fill="#DADADA"/>
</g>
</g>
</svg>
