<svg width="360" height="1275" viewBox="0 0 360 1275" fill="none" xmlns="http://www.w3.org/2000/svg">
<rect width="360" height="1275" fill="#323232"/>
<path d="M335.108 34.8443C334.565 34.6603 334.222 34.1234 334.288 33.5632L334.464 32.0729C334.604 30.8878 334.022 29.7174 332.981 29.092L331.297 28.0806C330.828 27.799 330.612 27.2361 330.777 26.7266C330.937 26.2347 331.412 25.9178 331.935 25.954L334.12 26.105C335.246 26.1828 336.305 25.6238 336.858 24.6606L337.566 23.4254C337.847 22.9365 338.439 22.7182 338.984 22.903C339.486 23.0733 339.826 23.5453 339.823 24.0684L339.812 25.708C339.805 26.8504 340.372 27.9337 341.324 28.5969L342.775 29.6074C343.209 29.9103 343.398 30.4567 343.238 30.9503C343.071 31.4633 342.571 31.7895 342.026 31.7403L340.404 31.5938C339.249 31.4896 338.138 32 337.486 32.9349L336.454 34.4138C336.157 34.8394 335.61 35.0145 335.108 34.8443Z" fill="#757575"/>
<path d="M343.644 343.959C343.378 344.081 343.237 344.37 343.308 344.647L343.495 345.385C343.643 345.972 343.422 346.592 342.93 346.963L342.136 347.564C341.914 347.731 341.841 348.025 341.958 348.272C342.072 348.51 342.335 348.643 342.6 348.596L343.707 348.399C344.277 348.298 344.855 348.52 345.201 348.973L345.643 349.553C345.818 349.783 346.135 349.86 346.402 349.737C346.647 349.624 346.79 349.368 346.754 349.106L346.643 348.284C346.565 347.711 346.784 347.136 347.227 346.751L347.903 346.163C348.105 345.987 348.166 345.703 348.052 345.464C347.934 345.216 347.657 345.08 347.381 345.134L346.562 345.298C345.978 345.414 345.377 345.219 344.983 344.786L344.36 344.101C344.18 343.904 343.889 343.846 343.644 343.959Z" fill="#757575"/>
<path d="M32.8048 37.791C32.4551 37.6724 32.2335 37.3263 32.2762 36.9653L32.3897 36.0047C32.4799 35.2408 32.1045 34.4864 31.4335 34.0833L30.3482 33.4313C30.046 33.2498 29.9068 32.887 30.0134 32.5587C30.1162 32.2416 30.4224 32.0373 30.7597 32.0606L32.1677 32.158C32.8934 32.2081 33.5765 31.8478 33.9326 31.227L34.3893 30.4308C34.5701 30.1156 34.952 29.975 35.3033 30.0941C35.6269 30.2038 35.8457 30.5081 35.8437 30.8452L35.8371 31.9021C35.8326 32.6385 36.1979 33.3367 36.8115 33.7642L37.7464 34.4155C38.0266 34.6107 38.148 34.9629 38.0448 35.2811C37.9376 35.6118 37.615 35.822 37.2636 35.7903L36.2181 35.6959C35.4738 35.6287 34.7581 35.9577 34.3377 36.5603L33.6726 37.5135C33.4812 37.7878 33.1282 37.9007 32.8048 37.791Z" fill="#757575"/>
<path d="M268.459 91.8341C268.269 91.6226 268.252 91.3126 268.419 91.0957L268.887 90.4877C269.249 90.0164 269.287 89.3661 268.984 88.8308L268.522 88.0152C268.384 87.7727 268.431 87.4746 268.633 87.2968C268.829 87.1253 269.121 87.109 269.347 87.257L270.239 87.8411C270.722 88.1575 271.334 88.1834 271.819 87.908L272.46 87.5447C272.7 87.4085 273.01 87.4633 273.201 87.6757C273.378 87.8718 273.409 88.1544 273.277 88.3718L272.847 89.0839C272.554 89.5686 272.53 90.1758 272.782 90.703L273.147 91.466C273.264 91.7089 273.209 91.9924 273.013 92.1644C272.809 92.3435 272.503 92.3572 272.27 92.1978L271.611 91.7465C271.13 91.4168 270.518 91.3587 270.005 91.5939L269.149 91.9855C268.917 92.0918 268.636 92.0301 268.459 91.8341Z" fill="#757575"/>
<path d="M208.177 276.409C208.154 275.942 208.465 275.536 208.917 275.442L210.134 275.188C211.096 274.987 211.828 274.228 211.997 273.254L212.266 271.699C212.342 271.26 212.714 270.945 213.16 270.94C213.591 270.935 213.982 271.221 214.115 271.638L214.66 273.358C214.945 274.254 215.702 274.931 216.618 275.107L217.8 275.335C218.262 275.424 218.61 275.825 218.633 276.295C218.654 276.728 218.392 277.114 217.987 277.247L216.706 277.668C215.817 277.961 215.149 278.684 214.923 279.597L214.583 280.974C214.48 281.392 214.113 281.682 213.681 281.687C213.232 281.692 212.825 281.388 212.696 280.95L212.317 279.662C212.046 278.74 211.313 278.014 210.392 277.754L208.918 277.339C208.5 277.22 208.198 276.842 208.177 276.409Z" fill="#757575"/>
<path d="M15.2271 319.85C14.9032 319.74 14.6979 319.419 14.7374 319.085L14.8426 318.195C14.9262 317.487 14.5784 316.788 13.9567 316.415L12.9513 315.811C12.6714 315.643 12.5424 315.307 12.6411 315.002C12.7364 314.709 13.02 314.519 13.3326 314.541L14.637 314.631C15.3093 314.678 15.9421 314.344 16.272 313.769L16.6951 313.031C16.8626 312.739 17.2164 312.609 17.5418 312.719C17.8416 312.821 18.0444 313.103 18.0425 313.415L18.0364 314.394C18.0322 315.076 18.3707 315.723 18.9391 316.119L19.8052 316.723C20.0648 316.904 20.1773 317.23 20.0817 317.525C19.9823 317.831 19.6835 318.026 19.3579 317.996L18.3893 317.909C17.6998 317.847 17.0368 318.151 16.6473 318.71L16.0311 319.593C15.8538 319.847 15.5268 319.951 15.2271 319.85Z" fill="#757575"/>
</svg>
