<svg width="360" height="337" viewBox="0 0 360 337" fill="none" xmlns="http://www.w3.org/2000/svg">
<rect width="360" height="337" fill="#323232"/>
<g opacity="0.5">
<path opacity="0.5" d="M357.735 190.947C357.729 190.808 357.819 190.688 357.952 190.66L358.303 190.585C358.582 190.525 358.794 190.303 358.843 190.018L358.924 189.55C358.944 189.422 359.052 189.33 359.182 189.328C359.307 189.327 359.42 189.41 359.458 189.532L359.618 190.047C359.702 190.309 359.919 190.507 360.186 190.56L360.526 190.625C360.662 190.652 360.763 190.771 360.769 190.91C360.775 191.038 360.7 191.152 360.581 191.192L360.212 191.316C359.954 191.403 359.76 191.615 359.693 191.883L359.594 192.297C359.562 192.419 359.458 192.504 359.333 192.505C359.203 192.507 359.084 192.418 359.046 192.291L358.936 191.906C358.857 191.634 358.643 191.42 358.373 191.342L357.952 191.222C357.83 191.187 357.74 191.075 357.735 190.947Z" fill="#DADADA"/>
<path opacity="0.5" d="M107.976 162.524C107.954 162.567 107.966 162.621 108.004 162.652L108.114 162.741C108.199 162.81 108.237 162.921 108.21 163.024L108.171 163.18C108.158 163.227 108.181 163.277 108.224 163.3C108.266 163.323 108.317 163.316 108.348 163.282L108.473 163.151C108.541 163.08 108.644 163.054 108.741 163.085L108.869 163.125C108.916 163.141 108.967 163.12 108.989 163.077C109.01 163.037 109.002 162.987 108.969 162.955L108.861 162.846C108.787 162.773 108.754 162.669 108.772 162.569L108.798 162.426C108.806 162.379 108.783 162.332 108.741 162.309C108.697 162.286 108.644 162.294 108.612 162.33L108.521 162.43C108.454 162.503 108.352 162.535 108.253 162.512L108.087 162.474C108.042 162.464 107.997 162.484 107.976 162.524Z" fill="#DADADA"/>
<path opacity="0.5" d="M193.889 187.478C193.782 187.469 193.693 187.386 193.677 187.279L193.634 186.995C193.599 186.768 193.436 186.579 193.217 186.513L192.861 186.406C192.762 186.377 192.695 186.283 192.699 186.18C192.703 186.081 192.773 186 192.869 185.982L193.272 185.904C193.479 185.865 193.642 185.71 193.693 185.505L193.759 185.243C193.785 185.138 193.881 185.069 193.989 185.077C194.088 185.085 194.173 185.156 194.199 185.254L194.279 185.558C194.335 185.77 194.492 185.943 194.697 186.021L195.01 186.139C195.104 186.174 195.165 186.266 195.161 186.365C195.157 186.468 195.083 186.553 194.983 186.57L194.682 186.621C194.468 186.657 194.293 186.805 194.223 187.01L194.111 187.333C194.079 187.426 193.988 187.485 193.889 187.478Z" fill="#DADADA"/>
<path opacity="0.5" d="M1.27053 222.678C1.11329 222.624 1.01349 222.467 1.03234 222.304L1.08427 221.857C1.12518 221.507 0.954012 221.159 0.64852 220.972L0.169829 220.679C0.031734 220.595 -0.0320932 220.427 0.0157759 220.276C0.0621946 220.131 0.201452 220.037 0.355504 220.047L0.979544 220.091C1.3097 220.114 1.61925 219.948 1.7791 219.664L1.9877 219.293C2.06777 219.15 2.23894 219.087 2.39676 219.142C2.54211 219.192 2.64075 219.33 2.63988 219.483L2.63669 219.973C2.63436 220.31 2.80031 220.632 3.07882 220.83L3.49224 221.123C3.61989 221.214 3.67559 221.377 3.62917 221.523C3.58073 221.675 3.43393 221.771 3.27349 221.757L2.80844 221.714C2.47277 221.684 2.15132 221.834 1.96391 222.108L1.65929 222.553C1.57428 222.678 1.41588 222.728 1.27053 222.678Z" fill="#DADADA"/>
</g>
<g opacity="0.5">
<path opacity="0.5" d="M293.966 131.385C293.911 131.322 293.908 131.23 293.954 131.166L294.091 130.986C294.195 130.846 294.207 130.654 294.12 130.496L293.986 130.254C293.946 130.183 293.96 130.094 294.018 130.042C294.073 129.991 294.16 129.986 294.224 130.03L294.482 130.202C294.624 130.296 294.801 130.303 294.944 130.222L295.129 130.114C295.199 130.073 295.289 130.09 295.344 130.152C295.393 130.21 295.405 130.294 295.364 130.358L295.24 130.569C295.155 130.713 295.147 130.893 295.222 131.048L295.327 131.274C295.361 131.346 295.344 131.43 295.289 131.481C295.228 131.534 295.141 131.538 295.071 131.491L294.883 131.358C294.741 131.26 294.564 131.243 294.416 131.313L294.166 131.429C294.099 131.461 294.018 131.443 293.966 131.385Z" fill="#DADADA"/>
<path opacity="0.5" d="M138.407 176.304C138.28 176.295 138.175 176.196 138.155 176.07L138.104 175.734C138.064 175.466 137.871 175.243 137.612 175.165L137.191 175.038C137.074 175.003 136.995 174.893 137 174.771C137.005 174.655 137.087 174.558 137.201 174.536L137.677 174.445C137.922 174.399 138.114 174.216 138.175 173.973L138.252 173.663C138.283 173.54 138.397 173.458 138.524 173.468C138.641 173.477 138.742 173.561 138.772 173.676L138.867 174.035C138.934 174.286 139.119 174.491 139.361 174.582L139.732 174.722C139.842 174.764 139.914 174.873 139.91 174.99C139.905 175.112 139.818 175.212 139.699 175.232L139.343 175.292C139.091 175.334 138.884 175.51 138.8 175.752L138.668 176.133C138.63 176.244 138.524 176.313 138.407 176.304Z" fill="#DADADA"/>
<path opacity="0.5" d="M272.476 175.395C272.454 175.438 272.466 175.492 272.504 175.523L272.614 175.613C272.699 175.681 272.737 175.792 272.71 175.896L272.67 176.051C272.658 176.098 272.681 176.148 272.724 176.171C272.766 176.194 272.817 176.187 272.848 176.153L272.973 176.022C273.041 175.951 273.144 175.925 273.241 175.956L273.368 175.997C273.416 176.012 273.466 175.991 273.489 175.948C273.51 175.908 273.502 175.858 273.469 175.826L273.36 175.717C273.287 175.644 273.254 175.54 273.272 175.44L273.298 175.296C273.306 175.25 273.283 175.203 273.241 175.18C273.198 175.156 273.144 175.165 273.112 175.201L273.021 175.301C272.954 175.374 272.852 175.406 272.753 175.383L272.587 175.345C272.542 175.335 272.497 175.355 272.476 175.395Z" fill="#DADADA"/>
<path opacity="0.5" d="M183.272 195.601C183.165 195.592 183.076 195.509 183.06 195.402L183.017 195.118C182.982 194.891 182.819 194.702 182.6 194.636L182.244 194.529C182.145 194.5 182.078 194.406 182.082 194.303C182.086 194.204 182.156 194.123 182.252 194.105L182.655 194.027C182.862 193.988 183.025 193.834 183.076 193.628L183.142 193.366C183.168 193.261 183.264 193.192 183.372 193.2C183.471 193.208 183.556 193.279 183.582 193.377L183.662 193.681C183.718 193.893 183.875 194.066 184.08 194.144L184.393 194.262C184.487 194.297 184.548 194.389 184.544 194.488C184.54 194.591 184.466 194.676 184.365 194.693L184.065 194.744C183.851 194.78 183.676 194.928 183.605 195.133L183.494 195.456C183.461 195.549 183.371 195.608 183.272 195.601Z" fill="#DADADA"/>
</g>
<path d="M350.617 154.612C350.612 154.474 350.702 154.354 350.835 154.326L351.186 154.252C351.465 154.192 351.676 153.97 351.726 153.686L351.804 153.222C351.827 153.094 351.935 153.002 352.065 153C352.19 152.999 352.303 153.082 352.341 153.203L352.5 153.715C352.582 153.977 352.802 154.175 353.069 154.226L353.408 154.293C353.542 154.319 353.646 154.437 353.652 154.576C353.658 154.703 353.582 154.817 353.464 154.857L353.092 154.98C352.834 155.067 352.64 155.279 352.576 155.546L352.474 155.956C352.445 156.078 352.341 156.163 352.213 156.164C352.083 156.166 351.967 156.077 351.929 155.95L351.819 155.568C351.74 155.297 351.526 155.083 351.256 155.006L350.835 154.886C350.71 154.85 350.623 154.739 350.617 154.612Z" fill="#757575"/>
<g filter="url(#filter0_d)">
<path d="M0.121094 286.106C72.323 301.115 81.317 263.51 143.151 286.481C172.506 297.387 175.629 277.22 204.485 274.666C223.098 273.019 236.229 281.054 271.315 287.577C289.054 290.875 305.293 279.805 319.783 266.142C332.775 253.893 354.433 256.855 359.881 249.346V304.248H0.121094V286.106Z" fill="#323232"/>
</g>
<defs>
<filter id="filter0_d" x="-19.8789" y="211.346" width="399.76" height="94.9025" filterUnits="userSpaceOnUse" color-interpolation-filters="sRGB">
<feFlood flood-opacity="0" result="BackgroundImageFix"/>
<feColorMatrix in="SourceAlpha" type="matrix" values="0 0 0 0 0 0 0 0 0 0 0 0 0 0 0 0 0 0 127 0"/>
<feOffset dy="-18"/>
<feGaussianBlur stdDeviation="10"/>
<feColorMatrix type="matrix" values="0 0 0 0 0 0 0 0 0 0 0 0 0 0 0 0 0 0 0.2 0"/>
<feBlend mode="normal" in2="BackgroundImageFix" result="effect1_dropShadow"/>
<feBlend mode="normal" in="SourceGraphic" in2="effect1_dropShadow" result="shape"/>
</filter>
</defs>
</svg>
