<svg width="360" height="403" viewBox="0 0 360 403" fill="none" xmlns="http://www.w3.org/2000/svg">
<rect y="13" width="360" height="390" fill="#323232"/>
<path d="M336.108 47.8443C335.565 47.6603 335.222 47.1234 335.288 46.5632L335.464 45.0729C335.604 43.8878 335.022 42.7174 333.981 42.092L332.297 41.0806C331.828 40.799 331.612 40.2361 331.777 39.7266C331.937 39.2347 332.412 38.9178 332.935 38.954L335.12 39.105C336.246 39.1828 337.305 38.6238 337.858 37.6606L338.566 36.4254C338.847 35.9365 339.439 35.7182 339.984 35.903C340.486 36.0733 340.826 36.5453 340.823 37.0684L340.812 38.708C340.805 39.8504 341.372 40.9337 342.324 41.5969L343.775 42.6074C344.209 42.9103 344.398 43.4567 344.238 43.9503C344.071 44.4633 343.571 44.7895 343.026 44.7403L341.404 44.5938C340.249 44.4896 339.138 45 338.486 45.9349L337.454 47.4138C337.157 47.8394 336.61 48.0145 336.108 47.8443Z" fill="#757575"/>
<path d="M344.644 356.959C344.378 357.082 344.237 357.37 344.308 357.647L344.495 358.385C344.643 358.972 344.422 359.592 343.93 359.963L343.136 360.564C342.914 360.731 342.841 361.025 342.958 361.272C343.072 361.51 343.335 361.643 343.6 361.596L344.707 361.399C345.277 361.298 345.855 361.52 346.201 361.973L346.643 362.553C346.818 362.783 347.135 362.86 347.402 362.737C347.647 362.624 347.79 362.368 347.754 362.106L347.643 361.284C347.565 360.711 347.784 360.136 348.227 359.751L348.903 359.163C349.105 358.987 349.166 358.703 349.052 358.464C348.934 358.216 348.657 358.08 348.381 358.135L347.562 358.298C346.978 358.414 346.377 358.219 345.983 357.786L345.36 357.101C345.18 356.904 344.889 356.846 344.644 356.959Z" fill="#757575"/>
<path d="M69.7813 83.7167C69.4316 83.5981 69.2101 83.252 69.2527 82.891L69.3662 81.9304C69.4565 81.1665 69.0811 80.4121 68.41 80.009L67.3247 79.3571C67.0226 79.1756 66.8834 78.8128 66.9899 78.4844C67.0928 78.1673 67.3989 77.963 67.7363 77.9863L69.1443 78.0837C69.87 78.1339 70.5531 77.7735 70.9092 77.1527L71.3659 76.3565C71.5467 76.0414 71.9285 75.9007 72.2799 76.0198C72.6034 76.1296 72.8223 76.4338 72.8202 76.771L72.8137 77.8278C72.8091 78.5642 73.1745 79.2624 73.788 79.6899L74.723 80.3412C75.0032 80.5364 75.1246 80.8887 75.0214 81.2068C74.9141 81.5375 74.5916 81.7477 74.2402 81.716L73.1946 81.6216C72.4504 81.5544 71.7347 81.8834 71.3143 82.486L70.6492 83.4392C70.4578 83.7136 70.1048 83.8264 69.7813 83.7167Z" fill="#757575"/>
<path d="M285.459 128.834C285.269 128.623 285.252 128.313 285.419 128.096L285.887 127.488C286.249 127.016 286.287 126.366 285.984 125.831L285.522 125.015C285.384 124.773 285.431 124.475 285.633 124.297C285.829 124.125 286.121 124.109 286.347 124.257L287.239 124.841C287.722 125.158 288.334 125.183 288.819 124.908L289.46 124.545C289.7 124.409 290.01 124.463 290.201 124.676C290.378 124.872 290.409 125.154 290.277 125.372L289.847 126.084C289.554 126.569 289.53 127.176 289.782 127.703L290.147 128.466C290.264 128.709 290.209 128.992 290.013 129.164C289.809 129.344 289.503 129.357 289.27 129.198L288.611 128.747C288.13 128.417 287.518 128.359 287.005 128.594L286.149 128.986C285.917 129.092 285.636 129.03 285.459 128.834Z" fill="#757575"/>
<path d="M145.177 274.409C145.154 273.941 145.465 273.536 145.917 273.441L147.134 273.188C148.096 272.987 148.828 272.228 148.997 271.254L149.266 269.699C149.342 269.26 149.714 268.944 150.16 268.939C150.591 268.935 150.982 269.221 151.115 269.638L151.66 271.358C151.945 272.254 152.702 272.931 153.618 273.107L154.8 273.334C155.262 273.423 155.61 273.825 155.633 274.294C155.654 274.728 155.392 275.113 154.987 275.247L153.706 275.668C152.817 275.96 152.149 276.684 151.923 277.597L151.583 278.974C151.48 279.392 151.113 279.682 150.681 279.687C150.232 279.692 149.825 279.388 149.696 278.95L149.317 277.662C149.046 276.74 148.313 276.014 147.392 275.754L145.918 275.338C145.5 275.22 145.198 274.842 145.177 274.409Z" fill="#757575"/>
<path d="M20.2271 198.85C19.9032 198.74 19.6979 198.419 19.7374 198.085L19.8426 197.195C19.9262 196.487 19.5784 195.788 18.9567 195.415L17.9513 194.811C17.6714 194.643 17.5424 194.307 17.6411 194.002C17.7364 193.709 18.02 193.519 18.3326 193.541L19.637 193.631C20.3093 193.678 20.9421 193.344 21.272 192.769L21.6951 192.031C21.8626 191.739 22.2164 191.609 22.5418 191.719C22.8416 191.821 23.0444 192.103 23.0425 192.415L23.0364 193.394C23.0322 194.076 23.3707 194.723 23.9391 195.119L24.8052 195.723C25.0648 195.904 25.1773 196.23 25.0817 196.525C24.9823 196.831 24.6835 197.026 24.3579 196.996L23.3893 196.909C22.6998 196.847 22.0368 197.151 21.6473 197.71L21.0311 198.593C20.8538 198.847 20.5268 198.951 20.2271 198.85Z" fill="#757575"/>
<g filter="url(#filter0_d)">
<path d="M360 26.874C287.798 4.64087 278.565 60.3454 216.731 26.318C187.375 10.1637 184.252 40.0371 155.397 43.8201C136.784 46.2602 102.566 23.0728 102.566 23.0728C102.566 23.0728 74.4997 6.54364e-06 61.4997 24.6955C39.9997 58.511 5.44889 13.5721 1.75702e-06 24.6954L4.00469e-06 2.87772e-07L360 3.05176e-05L360 26.874Z" fill="white"/>
</g>
<defs>
<filter id="filter0_d" x="-4" y="0" width="368" height="52" filterUnits="userSpaceOnUse" color-interpolation-filters="sRGB">
<feFlood flood-opacity="0" result="BackgroundImageFix"/>
<feColorMatrix in="SourceAlpha" type="matrix" values="0 0 0 0 0 0 0 0 0 0 0 0 0 0 0 0 0 0 127 0"/>
<feOffset dy="4"/>
<feGaussianBlur stdDeviation="2"/>
<feColorMatrix type="matrix" values="0 0 0 0 0 0 0 0 0 0 0 0 0 0 0 0 0 0 0.25 0"/>
<feBlend mode="normal" in2="BackgroundImageFix" result="effect1_dropShadow"/>
<feBlend mode="normal" in="SourceGraphic" in2="effect1_dropShadow" result="shape"/>
</filter>
</defs>
</svg>
