<svg width="100" height="100" viewBox="0 0 100 100" fill="none" xmlns="http://www.w3.org/2000/svg">
<ellipse cx="50.3858" cy="49.1791" rx="49.6124" ry="49.109" fill="white"/>
<g clip-path="url(#clip0)">
<path d="M38.5742 53.4488C40.3379 53.4488 41.7676 52.0336 41.7676 50.2878C41.7676 48.5421 40.3379 47.1269 38.5742 47.1269C36.8106 47.1269 35.3809 48.5421 35.3809 50.2878C35.3809 52.0336 36.8106 53.4488 38.5742 53.4488Z" fill="#E9B200"/>
<path d="M38.5742 52.4337C37.3926 52.4337 36.4258 51.4767 36.4258 50.3071C36.4258 49.1374 37.3926 48.1804 38.5742 48.1804C39.7559 48.1804 40.7227 49.1374 40.7227 50.3071C40.7227 51.4767 39.7559 52.4337 38.5742 52.4337ZM38.5742 49.7174C38.252 49.7174 37.9883 49.9784 37.9883 50.2974C37.9883 50.6164 38.252 50.8774 38.5742 50.8774C38.8965 50.8774 39.1602 50.6164 39.1602 50.2974C39.1602 49.9784 38.8965 49.7174 38.5742 49.7174Z" fill="#323232"/>
<path d="M61.0547 53.4488C62.8183 53.4488 64.248 52.0336 64.248 50.2878C64.248 48.5421 62.8183 47.1269 61.0547 47.1269C59.291 47.1269 57.8613 48.5421 57.8613 50.2878C57.8613 52.0336 59.291 53.4488 61.0547 53.4488Z" fill="#E9B200"/>
<path d="M61.0547 52.4337C59.8731 52.4337 58.9062 51.4767 58.9062 50.3071C58.9062 49.1374 59.8731 48.1804 61.0547 48.1804C62.2363 48.1804 63.2031 49.1374 63.2031 50.3071C63.2129 51.4767 62.2461 52.4337 61.0547 52.4337ZM61.0547 49.7174C60.7324 49.7174 60.4688 49.9784 60.4688 50.2974C60.4688 50.6164 60.7324 50.8774 61.0547 50.8774C61.377 50.8774 61.6406 50.6164 61.6406 50.2974C61.6406 49.9784 61.377 49.7174 61.0547 49.7174Z" fill="#323232"/>
<path d="M56.6504 64.5942V64.7198C56.6504 68.4608 53.584 71.4961 49.8047 71.4961C46.0645 71.4961 43.0273 68.5284 42.9688 64.8455V64.7295C42.9688 64.4878 42.998 64.2945 43.0469 64.1398C43.0664 64.0818 43.0859 64.0335 43.1152 63.9852C43.3594 63.4825 43.8867 63.1442 44.4824 63.1442C44.5996 63.1442 44.707 63.1539 44.8047 63.1829C45.4395 65.3288 47.4414 66.9045 49.8145 66.9045C52.1777 66.9045 54.1797 65.3288 54.8145 63.1829C54.9121 63.1539 55.0195 63.1442 55.127 63.1442C55.8301 63.1442 56.416 63.6082 56.5918 64.2462C56.5918 64.2558 56.6016 64.2558 56.6016 64.2655C56.6113 64.2945 56.6211 64.3235 56.6211 64.3428C56.6211 64.3622 56.6309 64.3718 56.6309 64.3912C56.6406 64.4492 56.6504 64.5168 56.6504 64.5942Z" fill="#E9B200"/>
<path d="M49.8145 67.4072C46.9824 67.4072 44.6582 65.1066 44.6582 62.3033V51.5831C44.6582 48.7798 46.9824 46.4792 49.8145 46.4792C52.6465 46.4792 54.9707 48.7798 54.9707 51.5831V62.3033C54.9707 65.1066 52.6562 67.4072 49.8145 67.4072Z" fill="#323232"/>
<path d="M39.5312 27.7068C39.5312 27.9001 39.5313 28.5284 39.2773 29.2824C38.8672 30.5197 38.0273 31.3124 37.6367 31.641C37.6172 31.6507 37.6758 31.612 37.6367 31.641C31.8652 36.31 28.3105 42.0229 27.3438 51.3994C27.1191 53.5551 25.2832 55.2274 23.0469 55.2274C22.2363 55.2274 21.4844 54.9954 20.8203 54.6184C20.7422 54.5701 20.6641 54.5217 20.5762 54.4637C15.752 51.2544 12.5 45.8895 12.5 39.7223C12.5 29.9687 20.5566 22.0518 30.4785 22.0518C32.2949 22.0518 34.3066 22.2258 36.1719 22.9605C38.1348 23.6662 39.5312 25.5221 39.5312 27.7068Z" fill="#323232"/>
<path d="M33.3203 32.7333C33.3203 32.8397 33.3203 33.178 33.1836 33.584C32.959 34.251 32.5098 34.6763 32.2949 34.86C32.2852 34.8696 32.3145 34.8406 32.2949 34.86C29.1797 37.3829 27.2559 40.4762 26.7383 45.5415C26.6211 46.7015 25.625 47.6101 24.4141 47.6101C23.9746 47.6101 23.5645 47.4844 23.2129 47.2814C23.1641 47.2524 23.125 47.2331 23.0859 47.1944C20.4687 45.4545 18.7207 42.5545 18.7207 39.2196C18.7207 33.9513 23.0762 29.669 28.4375 29.669C29.4141 29.669 30.5078 29.7657 31.5137 30.162C32.5684 30.5487 33.3203 31.554 33.3203 32.7333Z" fill="#E9B200"/>
<path d="M60.4688 27.7068C60.4688 27.9001 60.4687 28.5284 60.7227 29.2824C61.1328 30.5197 61.9727 31.3124 62.3633 31.641C62.3828 31.6507 62.3242 31.612 62.3633 31.641C68.1348 36.31 71.6894 42.0229 72.6562 51.3994C72.8809 53.5551 74.7168 55.2274 76.9531 55.2274C77.7637 55.2274 78.5156 54.9954 79.1797 54.6184C79.2578 54.5701 79.3359 54.5217 79.4238 54.4637C84.2578 51.2544 87.5 45.8895 87.5 39.7223C87.5 29.9687 79.4434 22.0518 69.5215 22.0518C67.7051 22.0518 65.6934 22.2258 63.8281 22.9605C61.8652 23.6662 60.4688 25.5221 60.4688 27.7068Z" fill="#323232"/>
<path d="M66.6797 32.7333C66.6797 32.8397 66.6797 33.178 66.8164 33.584C67.041 34.251 67.4902 34.6763 67.7051 34.86C67.7148 34.8696 67.6855 34.8406 67.7051 34.86C70.8203 37.3829 72.7441 40.4762 73.2617 45.5415C73.3789 46.7015 74.375 47.6101 75.5859 47.6101C76.0254 47.6101 76.4356 47.4844 76.7871 47.2814C76.8359 47.2524 76.875 47.2331 76.9141 47.1944C79.5313 45.4545 81.2793 42.5545 81.2793 39.2196C81.2793 33.9513 76.9238 29.669 71.5625 29.669C70.5859 29.669 69.4922 29.7657 68.4863 30.162C67.4414 30.5487 66.6797 31.554 66.6797 32.7333Z" fill="#E9B200"/>
</g>
<defs>
<clipPath id="clip0">
<rect width="100" height="98.9852" fill="white" transform="translate(0 0.0700989)"/>
</clipPath>
</defs>
</svg>
