<svg width="80" height="80" viewBox="0 0 80 80" fill="none" xmlns="http://www.w3.org/2000/svg">
<circle cx="40" cy="40" r="39" stroke="#757575" stroke-width="2" stroke-dasharray="5 5"/>
<g clip-path="url(#clip0)">
<path d="M55.89 31.855C57.5167 30.7 58.885 29.2583 60 27.5983V27.5967C58.5117 28.2483 56.9283 28.6817 55.275 28.8917C56.975 27.8767 58.2733 26.2817 58.8833 24.36C57.2983 25.305 55.5483 25.9717 53.6833 26.345C52.1783 24.7417 50.0333 23.75 47.6933 23.75C43.1533 23.75 39.4983 27.435 39.4983 31.9517C39.4983 32.6017 39.5533 33.2267 39.6883 33.8217C32.8717 33.4883 26.8383 30.2217 22.785 25.2433C22.0783 26.4717 21.6617 27.8767 21.6617 29.3883C21.6617 32.2283 23.1233 34.745 25.305 36.2033C23.9867 36.1783 22.695 35.795 21.6 35.1933V35.2833C21.6 39.2683 24.4417 42.5783 28.17 43.3417C27.5017 43.525 26.775 43.6117 26.02 43.6117C25.495 43.6117 24.965 43.5817 24.4683 43.4717C25.53 46.7183 28.5467 49.1067 32.13 49.185C29.34 51.3667 25.7967 52.6817 21.9617 52.6817C21.29 52.6817 20.645 52.6517 20 52.57C23.6333 54.9117 27.9367 56.25 32.58 56.25C47.0517 56.25 56.4833 44.1767 55.89 31.855Z" fill="#BDBDBD"/>
</g>
<defs>
<clipPath id="clip0">
<rect width="40" height="40" fill="white" transform="translate(20 20)"/>
</clipPath>
</defs>
</svg>
