<svg width="240" height="240" viewBox="0 0 240 240" fill="none" xmlns="http://www.w3.org/2000/svg">
<g clip-path="url(#clip0)">
<path d="M92.5781 129.422C96.8109 129.422 100.242 125.991 100.242 121.758C100.242 117.525 96.8109 114.094 92.5781 114.094C88.3454 114.094 84.9141 117.525 84.9141 121.758C84.9141 125.991 88.3454 129.422 92.5781 129.422Z" fill="#E9B200"/>
<path d="M92.5781 126.961C89.7422 126.961 87.4219 124.641 87.4219 121.805C87.4219 118.969 89.7422 116.648 92.5781 116.648C95.4141 116.648 97.7344 118.969 97.7344 121.805C97.7344 124.641 95.4141 126.961 92.5781 126.961ZM92.5781 120.375C91.8047 120.375 91.1719 121.008 91.1719 121.781C91.1719 122.555 91.8047 123.187 92.5781 123.187C93.3516 123.187 93.9844 122.555 93.9844 121.781C93.9844 121.008 93.3516 120.375 92.5781 120.375Z" fill="#323232"/>
<path d="M146.531 129.422C150.764 129.422 154.195 125.991 154.195 121.758C154.195 117.525 150.764 114.094 146.531 114.094C142.299 114.094 138.867 117.525 138.867 121.758C138.867 125.991 142.299 129.422 146.531 129.422Z" fill="#E9B200"/>
<path d="M146.531 126.961C143.695 126.961 141.375 124.641 141.375 121.805C141.375 118.969 143.695 116.648 146.531 116.648C149.367 116.648 151.688 118.969 151.688 121.805C151.711 124.641 149.391 126.961 146.531 126.961ZM146.531 120.375C145.758 120.375 145.125 121.008 145.125 121.781C145.125 122.555 145.758 123.187 146.531 123.187C147.305 123.187 147.938 122.555 147.938 121.781C147.938 121.008 147.305 120.375 146.531 120.375Z" fill="#323232"/>
<path d="M135.961 156.445V156.75C135.961 165.82 128.602 173.18 119.531 173.18C110.555 173.18 103.266 165.984 103.125 157.055V156.773C103.125 156.188 103.195 155.719 103.312 155.344C103.359 155.203 103.406 155.086 103.477 154.969C104.063 153.75 105.328 152.93 106.758 152.93C107.039 152.93 107.297 152.953 107.531 153.023C109.055 158.227 113.859 162.047 119.555 162.047C125.227 162.047 130.031 158.227 131.555 153.023C131.789 152.953 132.047 152.93 132.305 152.93C133.992 152.93 135.398 154.055 135.82 155.602C135.82 155.625 135.844 155.625 135.844 155.648C135.867 155.719 135.891 155.789 135.891 155.836C135.891 155.883 135.914 155.906 135.914 155.953C135.938 156.094 135.961 156.258 135.961 156.445Z" fill="#E9B200"/>
<path d="M119.555 163.266C112.758 163.266 107.18 157.687 107.18 150.891V124.898C107.18 118.102 112.758 112.523 119.555 112.523C126.352 112.523 131.93 118.102 131.93 124.898V150.891C131.93 157.687 126.375 163.266 119.555 163.266Z" fill="#323232"/>
<path d="M94.875 67.0078C94.875 67.4766 94.875 69 94.2656 70.8281C93.2813 73.8281 91.2656 75.75 90.3281 76.5469C90.2813 76.5703 90.4219 76.4766 90.3281 76.5469C76.4766 87.8672 67.9453 101.719 65.625 124.453C65.0859 129.68 60.6797 133.734 55.3125 133.734C53.3672 133.734 51.5625 133.172 49.9688 132.258C49.7813 132.141 49.5938 132.023 49.3828 131.883C37.8047 124.102 30 111.094 30 96.1406C30 72.4922 49.3359 53.2969 73.1484 53.2969C77.5078 53.2969 82.3359 53.7188 86.8125 55.5C91.5234 57.2109 94.875 61.7109 94.875 67.0078Z" fill="#323232"/>
<path d="M79.9688 79.1953C79.9688 79.4531 79.9687 80.2734 79.6406 81.2578C79.1016 82.875 78.0234 83.9062 77.5078 84.3516C77.4844 84.375 77.5547 84.3047 77.5078 84.3516C70.0313 90.4687 65.4141 97.9687 64.1719 110.25C63.8906 113.062 61.5 115.266 58.5938 115.266C57.5391 115.266 56.5547 114.961 55.7109 114.469C55.5938 114.398 55.5 114.352 55.4062 114.258C49.125 110.039 44.9297 103.008 44.9297 94.9219C44.9297 82.1484 55.3828 71.7656 68.25 71.7656C70.5938 71.7656 73.2188 72 75.6328 72.9609C78.1641 73.8984 79.9688 76.3359 79.9688 79.1953Z" fill="#E9B200"/>
<path d="M145.125 67.0078C145.125 67.4766 145.125 69 145.734 70.8281C146.719 73.8281 148.734 75.75 149.672 76.5469C149.719 76.5703 149.578 76.4766 149.672 76.5469C163.523 87.8672 172.055 101.719 174.375 124.453C174.914 129.68 179.32 133.734 184.687 133.734C186.633 133.734 188.437 133.172 190.031 132.258C190.219 132.141 190.406 132.023 190.617 131.883C202.219 124.102 210 111.094 210 96.1406C210 72.4922 190.664 53.2969 166.852 53.2969C162.492 53.2969 157.664 53.7188 153.187 55.5C148.477 57.2109 145.125 61.7109 145.125 67.0078Z" fill="#323232"/>
<path d="M160.031 79.1953C160.031 79.4531 160.031 80.2734 160.359 81.2578C160.898 82.875 161.977 83.9062 162.492 84.3516C162.516 84.375 162.445 84.3047 162.492 84.3516C169.969 90.4687 174.586 97.9687 175.828 110.25C176.109 113.062 178.5 115.266 181.406 115.266C182.461 115.266 183.445 114.961 184.289 114.469C184.406 114.398 184.5 114.352 184.594 114.258C190.875 110.039 195.07 103.008 195.07 94.9219C195.07 82.1484 184.617 71.7656 171.75 71.7656C169.406 71.7656 166.781 72 164.367 72.9609C161.859 73.8984 160.031 76.3359 160.031 79.1953Z" fill="#E9B200"/>
</g>
<defs>
<clipPath id="clip0">
<rect width="240" height="240" fill="white"/>
</clipPath>
</defs>
</svg>
