<svg width="1342" height="635" viewBox="0 0 1342 635" fill="none" xmlns="http://www.w3.org/2000/svg">
<path d="M939.783 100.3C937.426 102.629 937.402 106.428 939.731 108.786C942.059 111.143 945.858 111.167 948.216 108.838L939.783 100.3ZM1000.92 162.2C998.561 164.528 998.537 168.327 1000.87 170.685C1003.19 173.043 1006.99 173.066 1009.35 170.738L1000.92 162.2ZM948.216 108.838C962.951 94.2849 986.694 94.4324 1001.25 109.168L1009.79 100.735C990.575 81.2847 959.234 81.09 939.783 100.3L948.216 108.838ZM1001.25 109.168C1015.8 123.903 1015.65 147.646 1000.92 162.2L1009.35 170.738C1028.8 151.527 1029 120.186 1009.79 100.735L1001.25 109.168Z" fill="#C0BCC7"/>
<path d="M1307.17 484.303C1304.84 486.66 1301.04 486.684 1298.68 484.355C1296.33 482.027 1296.3 478.228 1298.63 475.87L1307.17 484.303ZM1245.27 423.168C1242.94 425.525 1239.14 425.549 1236.78 423.22C1234.43 420.892 1234.4 417.093 1236.73 414.735L1245.27 423.168ZM1298.63 475.87C1313.18 461.135 1313.04 437.392 1298.3 422.838L1306.73 414.3C1326.18 433.511 1326.38 464.852 1307.17 484.303L1298.63 475.87ZM1298.3 422.838C1283.57 408.285 1259.82 408.432 1245.27 423.168L1236.73 414.735C1255.94 395.285 1287.28 395.09 1306.73 414.3L1298.3 422.838Z" fill="#C0BCC7"/>
<path d="M695.265 316.863C695.277 320.177 697.974 322.852 701.288 322.839C704.602 322.827 707.277 320.13 707.264 316.816L695.265 316.863ZM772.854 316.56C772.867 319.874 775.563 322.55 778.877 322.537C782.191 322.524 784.866 319.827 784.854 316.514L772.854 316.56ZM707.264 316.816C707.194 298.704 721.819 283.964 739.931 283.894L739.884 271.894C715.145 271.99 695.168 292.124 695.265 316.863L707.264 316.816ZM739.931 283.894C758.043 283.823 772.783 298.448 772.854 316.56L784.854 316.514C784.757 291.774 764.624 271.797 739.884 271.894L739.931 283.894Z" fill="#FCEDD0"/>
<path d="M13.4696 511.76C13.4825 515.074 16.1793 517.75 19.493 517.737C22.8066 517.724 25.4824 515.027 25.4695 511.714L13.4696 511.76ZM91.0587 511.458C91.0716 514.772 93.7684 517.447 97.0821 517.434C100.396 517.422 103.072 514.725 103.059 511.411L91.0587 511.458ZM25.4695 511.714C25.3989 493.602 40.0243 478.862 58.1363 478.791L58.0895 466.791C33.3502 466.888 13.3732 487.021 13.4696 511.76L25.4695 511.714ZM58.1363 478.791C76.2483 478.721 90.9881 493.346 91.0587 511.458L103.059 511.411C102.962 486.672 82.8289 466.695 58.0895 466.791L58.1363 478.791Z" fill="#FCEDD0"/>
<path d="M1016.62 618.909C1013.3 618.896 1010.63 616.2 1010.64 612.886C1010.65 609.572 1013.35 606.896 1016.66 606.909L1016.62 618.909ZM1016.92 541.32C1013.6 541.307 1010.93 538.611 1010.94 535.297C1010.95 531.983 1013.65 529.307 1016.96 529.32L1016.92 541.32ZM1016.66 606.909C1034.77 606.98 1049.51 592.355 1049.58 574.243L1061.58 574.289C1061.49 599.029 1041.35 619.006 1016.62 618.909L1016.66 606.909ZM1049.58 574.243C1049.66 556.131 1035.03 541.391 1016.92 541.32L1016.96 529.32C1041.7 529.417 1061.68 549.55 1061.58 574.289L1049.58 574.243Z" fill="#FCEDD0"/>
<path d="M1217 39.9403C1213.69 39.9402 1211 42.6264 1211 45.9401C1211 49.2538 1213.69 51.9402 1217 51.9403L1217 39.9403ZM1251 83.9403C1251 87.254 1253.69 89.9403 1257 89.9403C1260.31 89.9403 1263 87.254 1263 83.9403L1251 83.9403ZM1217 51.9403C1220.17 51.9404 1231.75 51.3115 1240.98 60.6592L1249.52 52.2268C1236.39 38.9284 1219.83 39.9404 1217 39.9403L1217 51.9403ZM1240.98 60.6592C1250.59 70.3909 1251 80.2085 1251 83.9403L1263 83.9403C1263 78.6722 1262.28 65.141 1249.52 52.2268L1240.98 60.6592Z" fill="#F2D1CB"/>
<path d="M768.235 515.802C768.236 519.116 765.549 521.802 762.236 521.802C758.922 521.802 756.236 519.116 756.235 515.802L768.235 515.802ZM724.235 481.802C720.922 481.802 718.235 479.116 718.235 475.802C718.235 472.488 720.922 469.802 724.235 469.802L724.235 481.802ZM756.235 515.802C756.235 512.63 756.864 501.052 747.517 491.82L755.949 483.282C769.247 496.416 768.235 512.975 768.235 515.802L756.235 515.802ZM747.517 491.82C737.785 482.208 727.967 481.802 724.235 481.802L724.235 469.802C729.504 469.802 743.035 470.527 755.949 483.282L747.517 491.82Z" fill="#F2D1CB"/>
<path d="M304.235 625.802C304.236 629.116 301.549 631.802 298.236 631.802C294.922 631.802 292.236 629.116 292.235 625.802L304.235 625.802ZM260.235 591.802C256.922 591.802 254.235 589.116 254.235 585.802C254.235 582.488 256.922 579.802 260.235 579.802L260.235 591.802ZM292.235 625.802C292.235 622.63 292.864 611.052 283.517 601.82L291.949 593.282C305.247 606.416 304.235 622.975 304.235 625.802L292.235 625.802ZM283.517 601.82C273.785 592.208 263.967 591.802 260.235 591.802L260.235 579.802C265.504 579.802 279.035 580.527 291.949 593.282L283.517 601.82Z" fill="#F2D1CB"/>
<path d="M658.773 52.723C658.437 56.0197 660.837 58.9645 664.134 59.3006C667.431 59.6366 670.375 57.2366 670.712 53.9399L658.773 52.723ZM705.993 23.3588C709.29 23.6948 712.235 21.2946 712.571 17.998C712.907 14.7013 710.507 11.7566 707.21 11.4207L705.993 23.3588ZM670.712 53.9399C671.033 50.7836 671.581 39.202 681.817 30.965L674.293 21.6163C659.732 33.3347 659.06 49.9104 658.773 52.723L670.712 53.9399ZM681.817 30.965C692.473 22.3895 702.281 22.9805 705.993 23.3588L707.21 11.4207C701.969 10.8866 688.434 10.2364 674.293 21.6163L681.817 30.965Z" fill="#EFF5F4"/>
<path d="M432.924 463.852C432.588 467.149 434.988 470.093 438.284 470.429C441.581 470.766 444.526 468.365 444.862 465.069L432.924 463.852ZM480.144 434.488C483.44 434.824 486.385 432.424 486.721 429.127C487.057 425.83 484.657 422.885 481.36 422.55L480.144 434.488ZM444.862 465.069C445.184 461.912 445.732 450.331 455.967 442.094L448.444 432.745C433.882 444.464 433.21 461.039 432.924 463.852L444.862 465.069ZM455.967 442.094C466.623 433.518 476.431 434.109 480.144 434.488L481.36 422.55C476.119 422.016 462.584 421.365 448.444 432.745L455.967 442.094Z" fill="#EFF5F4"/>
<path d="M993.586 384.848C990.289 385.184 987.344 382.784 987.008 379.487C986.672 376.19 989.072 373.246 992.369 372.91L993.586 384.848ZM1022.95 337.628C1022.61 334.331 1025.01 331.386 1028.31 331.05C1031.61 330.714 1034.55 333.115 1034.89 336.411L1022.95 337.628ZM992.369 372.91C995.525 372.588 1007.11 372.04 1015.34 361.804L1024.69 369.328C1012.97 383.889 996.398 384.561 993.586 384.848L992.369 372.91ZM1015.34 361.804C1023.92 351.149 1023.33 341.34 1022.95 337.628L1034.89 336.411C1035.42 341.652 1036.07 355.187 1024.69 369.328L1015.34 361.804Z" fill="#EFF5F4"/>
</svg>
